<svg width="83" height="24" viewBox="0 0 83 24" fill="none" xmlns="http://www.w3.org/2000/svg">
<g clip-path="url(#clip0_911_1168)">
<path d="M25.8 19.125V4.88999C25.8 4.67999 25.695 4.46999 25.515 4.34999C25.335 4.22999 25.11 4.21499 24.915 4.30499L19.095 6.82499V2.77499C19.095 2.56499 18.99 2.35499 18.81 2.23499C18.63 2.11499 18.405 2.09999 18.21 2.17499L12.39 4.69499V0.644988C12.39 0.434988 12.285 0.224988 12.105 0.104988C11.925 -0.0150117 11.7 -0.0300117 11.505 0.0449883L1.65001 4.30499C1.41001 4.40999 1.26001 4.63499 1.26001 4.88999V19.125C1.26001 19.335 1.36501 19.545 1.54501 19.665C1.65001 19.74 1.77001 19.77 1.89001 19.77C1.98001 19.77 2.05501 19.755 2.14501 19.725L7.96501 17.205V21.255C7.96501 21.465 8.07001 21.675 8.25001 21.795C8.35501 21.87 8.47501 21.9 8.59501 21.9C8.68501 21.9 8.76001 21.885 8.85001 21.855L14.67 19.335V23.385C14.67 23.595 14.775 23.805 14.955 23.925C15.06 24 15.18 24.03 15.3 24.03C15.39 24.03 15.465 24.015 15.555 23.985L25.395 19.725C25.65 19.62 25.8 19.38 25.8 19.125ZM24.525 18.705L15.96 22.41V18.78L18.705 17.595C18.945 17.49 19.095 17.265 19.095 17.01V9.59999L17.82 10.155V16.575L15.96 17.385L14.685 17.94L9.25501 20.28V16.65L12 15.465C12.24 15.36 12.39 15.135 12.39 14.88V7.46999L11.115 8.02499V14.445L9.25501 15.255L7.98001 15.81L2.55001 18.15V5.30999L11.115 1.60499V5.24999L8.37001 6.43499C8.13001 6.53999 7.98001 6.76499 7.98001 7.01999V14.415L9.25501 13.86V7.43999L11.115 6.62999L12.39 6.07499L17.82 3.73499V7.36499L15.075 8.54999C14.835 8.65499 14.685 8.87999 14.685 9.13499V16.53L15.96 15.975V9.56999L17.82 8.75999L19.095 8.20499L24.525 5.86499V18.705Z" fill="#15C6F6"/>
<path d="M45.3092 9.30501C44.6924 7.40109 42.7885 6.24802 39.9193 6.24802C35.8969 6.24802 33.4567 8.58098 33.4567 11.9866C33.4567 15.4726 35.8969 17.752 39.6243 17.752C43.9148 17.752 45.7651 15.4458 45.7651 12.2547C45.7651 11.9329 45.7651 11.5843 45.6846 11.2357H39.6779V13.1128H43.0299C43.0835 14.6145 41.6355 15.6335 39.8388 15.6335C37.5327 15.6335 36.3528 14.2123 36.3528 11.9866C36.3528 9.76087 37.5595 8.28601 39.6511 8.28601C40.8846 8.28601 41.9036 8.79551 42.3058 9.94859L45.3092 9.30501Z" fill="#15C6F6"/>
<path d="M53.4612 15.6067C51.4232 15.6067 50.136 14.1855 50.136 11.9866C50.136 9.76087 51.4232 8.36646 53.4612 8.36646C55.4991 8.36646 56.7863 9.76087 56.7863 11.9866C56.7863 14.2123 55.4991 15.6067 53.4612 15.6067ZM53.4612 17.7251C57.2154 17.7251 59.6556 15.4994 59.6556 11.9866C59.6556 8.47372 57.2154 6.24802 53.4612 6.24802C49.707 6.24802 47.2667 8.47372 47.2667 11.9866C47.2935 15.4994 49.7338 17.7251 53.4612 17.7251Z" fill="#15C6F6"/>
<path d="M66.9764 15.5531H63.973V12.791H67.0032C68.1294 12.791 68.6926 13.3274 68.6926 14.1586C68.6926 14.9363 68.1562 15.5531 66.9764 15.5531ZM63.973 8.44689H66.8155C67.9685 8.44689 68.3976 9.01003 68.3976 9.68042C68.3976 10.3776 68.0222 10.9944 66.8155 10.9944H63.973V8.44689ZM69.2289 11.7452C70.5697 11.4234 71.2669 10.4849 71.2669 9.33181C71.2669 7.74969 70.1138 6.56979 67.5663 6.56979H61.2378V17.4302H67.7004C70.3551 17.4302 71.5618 16.0626 71.5618 14.3464C71.5618 12.9251 70.7574 11.9866 69.2289 11.7452Z" fill="#15C6F6"/>
<path d="M73.4657 6.56979V17.4302H81.8858V15.2313H76.2009V6.56979H73.4657Z" fill="#15C6F6"/>
</g>
<defs>
<clipPath id="clip0_911_1168">
<rect width="82.5" height="24" fill="white"/>
</clipPath>
</defs>
</svg>
